<svg height="512" viewBox="0 0 64 64" width="512" xmlns="http://www.w3.org/2000/svg"><g id="outline"><path d="m59 37h-4a1 1 0 0 1 0-2 3 3 0 0 0 0-6h-9v-1.9l2.98-15.9a6.46 6.46 0 0 0 -3.425-7.028l-3-2a1 1 0 0 0 -1.11 0l-2.945 1.96a6.483 6.483 0 0 0 -3.49 7.033l2.99 15.935v28.9c0 3.495 3.305 5.738 3.445 5.832a1 1 0 0 0 1.11 0c.145-.094 3.445-2.332 3.445-5.832v-13h13a3 3 0 0 0 0-6zm-15 5v14a5.354 5.354 0 0 1 -2 3.724 5.352 5.352 0 0 1 -2-3.724v-24h4zm0-12h-4v-2h4zm.18-4h-4.36l-1.6-8h7.56zm0-10 .806-4.835-1.972-.33-.861 5.165h-.306l-.861-5.165-1.972.33.806 4.835h-1.973l-.867-5.2c-.4-2 .519-3.794 2.575-4.972l2.445-1.628 2.5 1.666a4.533 4.533 0 0 1 2.51 4.967l-.857 5.167zm14.82 25h-13v-10h9a1 1 0 0 1 0 2 3 3 0 0 0 0 6h4a1 1 0 0 1 0 2z"/><path d="m29 23h-6a1 1 0 0 0 -1 1v15a1 1 0 0 0 1 1h6a1 1 0 0 0 1-1v-15a1 1 0 0 0 -1-1zm-1 15h-4v-13h4z"/><path d="m28 52h2v2h-2z"/><path d="m24 48h-2v5a1 1 0 0 0 1 1h3v-2h-2z"/><path d="m5 51h13v9a2 2 0 0 0 2 2h12a2 2 0 0 0 2-2v-44a1 1 0 0 0 -1-1h-1v-8c0-1.937-1.964-3.572-3.835-3.986l-6-1a.919.919 0 0 0 -.165-.014h-5a1 1 0 0 0 -1 1v4a1 1 0 0 0 1 1h3v7h-1a1 1 0 0 0 -1 1v21h-9a3 3 0 0 0 0 6 1 1 0 0 1 0 2h-4a3 3 0 0 0 0 6zm13-45v-2h3.917l5.866.976c.998.224 2.217 1.199 2.217 2.024v2h-8v-2a1 1 0 0 0 -1-1zm12 5v4h-8v-4zm-10 6h12v2h-12zm0 4h12v35h-12zm0 37h12v2h-12zm-15-11h4a3 3 0 0 0 0-6 1 1 0 0 1 0-2h9v10h-13a1 1 0 0 1 0-2z"/><path d="m12 29h2v2h-2z"/><path d="m12 33h2v2h-2z"/><path d="m10 31h2v2h-2z"/><path d="m14 31h2v2h-2z"/><path d="m50 45h2v2h-2z"/><path d="m50 49h2v2h-2z"/><path d="m48 47h2v2h-2z"/><path d="m52 47h2v2h-2z"/></g></svg>